HIERARCHY
ROOT Hips
{
  OFFSET 90.7885 88.945 -76.2838
  CHANNELS 6 Xposition Yposition Zposition Zrotation Xrotation Yrotation
  JOINT LeftUpLeg
  {
    OFFSET 8.64259 1.95398 -2.38835
    CHANNELS 3 Zrotation Xrotation Yrotation
    JOINT LeftLeg
    {
      OFFSET 43.7702 0 0
      CHANNELS 3 Zrotation Xrotation Yrotation
      JOINT LeftFoot
      {
        OFFSET 40.6238 0 0
        CHANNELS 3 Zrotation Xrotation Yrotation
        JOINT LeftToeBase
        {
          OFFSET 12.7242 0 0
          CHANNELS 3 Zrotation Xrotation Yrotation
          End Site
          {
            OFFSET 0 0 0
          }
        }
      }
    }
  }
  JOINT RightUpLeg
  {
    OFFSET -8.2249 1.95398 -2.59336
    CHANNELS 3 Zrotation Xrotation Yrotation
    JOINT RightLeg
    {
      OFFSET 43.5653 0 0
      CHANNELS 3 Zrotation Xrotation Yrotation
      JOINT RightFoot
      {
        OFFSET 40.6238 0 0
        CHANNELS 3 Zrotation Xrotation Yrotation
        JOINT RightToeBase
        {
          OFFSET 12.7242 0 0
          CHANNELS 3 Zrotation Xrotation Yrotation
          End Site
          {
            OFFSET 0 0 0
          }
        }
      }
    }
  }
  JOINT Spine
  {
    OFFSET 0.165834 0.87714 6.61349
    CHANNELS 3 Zrotation Xrotation Yrotation
    JOINT Spine1
    {
      OFFSET 7.38963 1.71661e-005 0
      CHANNELS 3 Zrotation Xrotation Yrotation
      JOINT Spine2
      {
        OFFSET 11.9445 1.14441e-005 0
        CHANNELS 3 Zrotation Xrotation Yrotation
        JOINT Spine3
        {
          OFFSET 14.7254 4.19617e-005 0
          CHANNELS 3 Zrotation Xrotation Yrotation
          JOINT Spine4
          {
            OFFSET 10.9679 0 0
            CHANNELS 3 Zrotation Xrotation Yrotation
            JOINT RightShoulder
            {
              OFFSET 2.46616 -1.6653 3.69651
              CHANNELS 3 Zrotation Xrotation Yrotation
              JOINT RightArm
              {
                OFFSET 13.0012 0 0
                CHANNELS 3 Zrotation Xrotation Yrotation
                JOINT RightForeArm
                {
                  OFFSET 28.7848 1.52588e-005 0
                  CHANNELS 3 Zrotation Xrotation Yrotation
                  JOINT RightHand
                  {
                    OFFSET 26.5688 1.52588e-005 0
                    CHANNELS 3 Zrotation Xrotation Yrotation
                    End Site
                    {
                      OFFSET 0 0 0
                    }
                  }
                }
              }
            }
            JOINT LeftShoulder
            {
              OFFSET 2.38034 -1.29275 -3.7523
              CHANNELS 3 Zrotation Xrotation Yrotation
              JOINT LeftArm
              {
                OFFSET 16.3182 6.10352e-005 0
                CHANNELS 3 Zrotation Xrotation Yrotation
                JOINT LeftForeArm
                {
                  OFFSET 27.0901 0 0
                  CHANNELS 3 Zrotation Xrotation Yrotation
                  JOINT LeftHand
                  {
                    OFFSET 24.5451 1.52588e-005 0
                    CHANNELS 3 Zrotation Xrotation Yrotation
                    End Site
                    {
                      OFFSET 0 0 0
                    }
                  }
                }
              }
            }
            JOINT Neck
            {
              OFFSET 5.0226 -0.0266342 0
              CHANNELS 3 Zrotation Xrotation Yrotation
              JOINT Head
              {
                OFFSET 6.69363 2.86102e-005 0
                CHANNELS 3 Zrotation Xrotation Yrotation
                End Site
                {
                  OFFSET 0 0 0
                }
              }
            }
          }
        }
      }
    }
  }
}
MOTION
Frames:	9
Frame Time:	0.0416667
30.4167 100.686 -326.09 162.741 -82.3773 162.163 -176.746 -3.63953 91.1851 -11.1632 15.3787 0.728964 64.078 2.4535 5.01006 27.1208 0.139858 0.0937503 169.409 -5.05735 86.0453 -11.1818 -13.1093 -1.31325 64.2257 -2.59142 0.854366 24.2053 1.13491 -1.39881 0.0459157 8.11986 -90.004 10.6342 0.0896498 -0.016091 -1.03675 0.088861 -0.0200203 -23.5719 0.0903452 0.0115967 -3.55928 0.0903402 0.0115936 87.7535 -32.8043 -109.982 37.2758 -15.2309 -9.28079 -5.10629 -25.5808 -29.8722 -19.6191 -1.70005 -1.63113 -89.8077 -56.1096 80.2351 -18.8878 2.41509 -20.8807 118.139 57.3446 -117.044 12.1955 -2.96687 -26.5958 6.68642 -1.71118 -5.30774 -5.56401 -0.716563 2.67111 
30.3203 100.695 -326.078 160.528 -82.5512 160.204 -176.479 -3.14562 91.6632 -11.3964 14.639 0.492376 64.3008 2.49395 3.80962 27.4589 0.434041 -0.38821 169.659 -5.15065 86.4784 -10.6845 -12.9057 -1.29345 64.4145 -2.72371 -0.132122 22.5054 0.19946 0.905011 0.0297593 8.08598 -90.0398 10.702 0.0409662 -0.0827643 -0.968976 0.0372841 -0.0844979 -23.5041 0.0639549 -0.0666229 -3.49147 0.0639448 -0.0666365 87.4686 -32.6026 -110.602 37.4679 -15.0253 -8.77702 -5.16163 -25.4099 -29.9632 -19.2166 -1.82831 -0.398071 -90.3215 -56.2917 79.5519 -20.1139 0.595478 -19.424 119.018 55.1007 -116.922 11.1956 -2.84089 -27.2022 6.4028 -1.79976 -5.45379 -5.47108 -0.791221 2.83065 
30.4325 100.703 -326.053 164.594 -82.4124 163.951 -176.78 -3.772 91.1085 -10.8907 13.2126 0.554331 64.195 2.42677 3.32158 27.3193 0.573346 -0.561848 169.265 -5.15566 85.908 -11.0599 -13.5904 -1.27813 65.1474 -3.06495 -0.748736 20.697 -0.597992 2.83366 0.061542 8.12751 -90.0084 10.6188 0.118716 -0.0275267 -1.05211 0.117395 -0.0327256 -23.5873 0.121501 0.00942004 -3.57466 0.121498 0.00941636 87.4468 -32.4756 -110.697 37.3489 -15.2038 -8.91252 -4.52897 -25.3268 -29.3733 -19.8547 -1.6712 -1.79526 -90.3311 -56.5296 79.5849 -18.1355 2.95559 -20.9765 115.069 59.3493 -114.505 11.9256 -2.77978 -25.5664 6.20881 -1.89014 -5.52919 -5.16199 -0.86969 2.92117 
30.3029 100.713 -326.063 164.311 -82.9514 164.089 -176.482 -2.98897 91.7627 -11.3371 13.4137 0.41343 64.3703 2.45152 3.39862 27.136 0.818192 -0.875818 169.824 -5.03478 86.6596 -10.448 -13.0255 -1.37985 64.7341 -2.92652 -0.591717 20.9706 -0.713613 3.01247 0.0659243 8.08138 -90.0523 10.7112 0.107236 -0.11366 -0.95975 0.102126 -0.118274 -23.4949 0.136432 -0.0761791 -3.48227 0.136436 -0.0761823 87.5391 -32.3606 -110.571 37.4176 -15.3614 -9.03196 -4.25633 -25.4906 -29.0209 -19.8771 -1.69099 -1.67369 -90.2217 -56.4873 79.7293 -18.321 3.07694 -19.4023 109.801 58.356 -109.244 10.2186 -2.40449 -25.1128 6.44882 -1.85705 -5.43723 -5.4255 -0.838943 2.55799 
30.3153 100.688 -326.097 164.909 -83.2121 164.76 -176.459 -2.75838 91.7735 -11.2996 13.2857 0.348226 64.4056 2.45952 3.46133 27.3584 0.689662 -0.735124 169.936 -4.70371 86.7639 -10.5585 -13.0708 -1.39891 64.82 -2.97675 -0.543436 20.3073 -0.382454 2.46509 0.074362 8.05988 -90.0472 10.7542 0.12636 -0.105476 -0.91678 0.121595 -0.110952 -23.452 0.152217 -0.0626298 -3.43933 0.15222 -0.0626283 87.4513 -32.6459 -110.616 37.1301 -15.4098 -9.11453 -3.5937 -25.4583 -28.3435 -20.1253 -1.61455 -2.25523 -90.3706 -56.2219 79.4698 -18.4473 3.47908 -19.8441 105.475 61.0268 -105.348 9.83978 -2.21554 -24.0416 6.65618 -1.76902 -5.76068 -5.67013 -0.692148 2.80041 
30.4268 100.708 -326.045 166.549 -83.0015 166.048 -176.886 -2.88412 91.2088 -11.6741 12.1706 0.646507 64.4723 2.40476 2.63746 26.7643 1.10693 -1.21125 169.543 -4.73771 86.1931 -10.8448 -13.6045 -1.37494 64.9373 -2.99696 -0.585905 20.6852 -0.415245 2.46975 0.0786265 8.08199 -89.9793 10.7099 0.166125 0.0258135 -0.961091 0.167102 0.0184659 -23.4963 0.150687 0.0745464 -3.48366 0.150687 0.07454 87.4621 -32.9809 -110.456 37.0209 -15.6699 -9.14068 -2.87087 -25.4162 -27.4651 -20.8109 -1.63493 -2.22149 -90.2881 -55.5163 79.4461 -18.835 4.23679 -20.1308 97.6451 63.7316 -98.0363 8.88864 -1.87933 -22.3772 6.62023 -1.80555 -6.41547 -5.58373 -0.618277 3.42317 
30.3073 100.703 -326.033 166.804 -83.3615 166.689 -176.564 -2.26297 91.9531 -12.1796 12.4353 0.467916 64.6757 2.45166 2.80865 27.1853 1.07983 -1.2594 170.01 -4.66832 86.8338 -10.4975 -13.3793 -1.45127 64.6578 -2.91547 -0.745232 20.9726 -0.663912 2.91412 0.0904796 8.04714 -90.0308 10.7797 0.165988 -0.0766211 -0.891263 0.162454 -0.0838585 -23.4265 0.181337 -0.0231886 -3.41385 0.181338 -0.0231945 87.338 -32.9173 -110.715 36.9138 -15.6315 -8.97025 -2.2633 -25.3733 -26.7787 -21.2053 -1.56149 -2.76743 -90.1711 -55.879 79.6819 -18.3209 5.17715 -19.4428 85.8983 63.9196 -86.8824 6.97723 -1.45503 -20.8832 6.5194 -1.85399 -6.18844 -5.34971 -0.70512 3.29117 
30.343 100.689 -325.932 170.92 -83.2993 170.671 -176.633 -2.85642 91.6537 -11.6476 12.4962 0.474546 64.4213 2.43569 3.27534 27.6241 0.509532 -0.525636 169.833 -4.54778 86.5435 -10.9848 -14.0798 -1.45359 64.8293 -2.9549 -0.773765 20.8256 -0.482269 2.57903 0.137769 8.07446 -90.0043 10.7251 0.27241 -0.0333941 -0.945826 0.270683 -0.0453548 -23.4812 0.269855 0.0500243 -3.46857 0.269854 0.0500213 87.4965 -33.0343 -110.369 36.8872 -15.5693 -9.17575 -1.52348 -25.5883 -25.7737 -21.8152 -1.45835 -3.59224 -90.3207 -55.4783 79.3929 -18.5766 5.94464 -19.6789 73.1046 65.1562 -74.4808 5.62126 -1.07566 -18.43 6.44606 -1.96248 -6.57785 -5.29885 -0.744676 3.50401 
30.4243 100.686 -325.879 171.962 -83.2039 171.597 -176.636 -3.21826 91.38 -11.2367 12.504 0.38454 64.1744 2.37156 3.53576 27.9434 0.571975 -0.678254 169.592 -4.47501 86.253 -11.2811 -14.5551 -1.36793 64.9657 -3.02756 -0.962425 21.0937 -0.593788 2.75744 0.137589 8.08081 -90.018 10.7123 0.265749 -0.0602465 -0.95859 0.262839 -0.0718886 -23.494 0.27156 0.0224134 -3.48133 0.271565 0.0224047 87.717 -32.6767 -110.103 37.1297 -15.5015 -9.1855 -0.719434 -25.6098 -24.6612 -22.1127 -1.35194 -4.28244 -90.3084 -56.0637 79.5257 -18.0382 7.10841 -19.8191 57.3398 64.3961 -59.214 4.21537 -0.785597 -16.4027 6.60894 -1.89958 -5.73663 -5.77707 -0.8301 2.79515 
